---
---
<svg version="1.0" class='name' xmlns="http://www.w3.org/2000/svg"
       viewBox="0 0 300 72"
       preserveAspectRatio="xMidYMid meet">
      <g transform="translate(0.000000,72.000000) scale(0.100000,-0.100000)"
       stroke="none">
      <path d="M87 543 c-4 -3 -7 -87 -7 -185 l0 -178 40 0 40 0 0 132 0 132 65 -64
      65 -64 65 64 65 64 0 -132 0 -132 40 0 40 0 -2 183 -3 182 -34 3 c-30 3 -41
      -4 -102 -64 l-69 -68 -68 67 c-54 53 -74 67 -98 67 -17 0 -34 -3 -37 -7z"/>
      <path d="M550 365 l0 -185 160 0 160 0 0 30 0 30 -120 0 -120 0 0 55 0 55 105
      0 105 0 0 30 0 30 -105 0 -105 0 0 35 0 35 115 0 115 0 0 35 0 35 -155 0 -155
      0 0 -185z"/>
      <path d="M900 366 l0 -186 40 0 40 0 0 50 0 50 58 0 57 0 33 -50 c31 -48 34
      -50 77 -50 l46 0 -38 56 -39 56 38 38 c34 33 38 43 38 87 0 98 -44 124 -222
      131 l-128 5 0 -187z m248 98 c15 -10 22 -25 22 -49 0 -50 -28 -65 -117 -65
      l-73 0 0 65 0 65 73 0 c49 0 80 -5 95 -16z"/>
      <path d="M1374 525 c-27 -14 -59 -40 -73 -60 -55 -81 -31 -198 50 -252 63 -42
      195 -42 258 0 81 54 105 171 50 252 -55 81 -187 109 -285 60z m202 -79 c29
      -29 34 -40 34 -83 -1 -71 -56 -123 -130 -123 -74 0 -129 52 -130 124 0 42 5
      53 34 82 31 31 39 34 96 34 57 0 65 -3 96 -34z"/>
      <path d="M1680 541 c0 -6 35 -90 77 -186 l77 -175 36 0 37 0 77 174 c42 96 76
      179 76 186 0 7 -14 10 -37 8 l-38 -3 -55 -132 c-30 -73 -57 -133 -60 -133 -3
      0 -30 60 -60 133 l-55 132 -37 3 c-22 2 -38 -1 -38 -7z"/>
      <path d="M2070 365 l0 -185 198 0 197 0 50 65 c28 35 52 64 55 64 3 0 27 -29
      54 -64 47 -63 50 -65 93 -65 51 0 52 -4 -27 95 -31 39 -60 76 -64 83 -4 7 16
      41 55 90 34 42 67 83 72 90 7 9 -1 12 -35 12 -44 0 -47 -2 -95 -65 l-50 -65
      -49 65 c-47 61 -51 65 -91 65 -24 0 -43 -2 -43 -6 0 -3 24 -35 53 -72 91 -113
      89 -98 16 -188 -45 -55 -65 -73 -67 -61 -3 15 -18 17 -123 17 l-119 0 0 55 0
      55 105 0 105 0 0 30 0 30 -105 0 -105 0 0 35 0 35 115 0 115 0 0 35 0 35 -155
      0 -155 0 0 -185z"/>
      </g>
  </svg>